{"title":"Rihanna - Diamonds (Single) [Feat. Kanye West] M4A &amp; MP3","uid":7839363,"size":21181561,"categoryP":"audio","categoryS":"other","magnet":"?xt=urn:btih:485f850a0fab86a8904ecea3509268e3d0bd80b9&amp;dn=Rihanna+-+Diamonds+%28Single%29+%5BFeat.+Kanye+West%5D+M4A+%26amp%3B+MP3&amp;tr=udp%3A%2F%2Ftracker.openbittorrent.com%3A80&amp;tr=udp%3A%2F%2Fopen.demonii.com%3A1337&amp;tr=udp%3A%2F%2Ftracker.coppersurfer.tk%3A6969&amp;tr=udp%3A%2F%2Fexodus.desync.com%3A6969","seeders":4,"leechers":2,"uploader":"Ivan1993","files":-1,"time":1353286904,"description":"* M4A Details\n\nFormat                           : AAC\nFormat/Info                      : Advanced Audio Codec\nFormat version                   : Version 4\nFormat profile                   : LC\nCodec ID                         : 40\nDuration                         : 4mn 48s\nBit rate mode                    : Variable\nBit rate                         : 256 Kbps\nMaximum bit rate                 : 325 Kbps\nChannel(s)                       : 2 channels\nChannel positions                : Front: L R\nSampling rate                    : 44.1 KHz\nStream size                      : 8.97 MiB (98%)\n\n-----\n\n* MP3 Details\n\nFormat                           : MPEG Audio\nFormat version                   : Version 1\nFormat profile                   : Layer 3\nMode                             : Joint stereo\nDuration                         : 4mn 48s\nBit rate mode                    : Constant\nBit rate                         : 320 Kbps\nChannel(s)                       : 2 channels\nSampling rate                    : 44.1 KHz\nStream size                      : 11.0 MiB (99%)","torrent":{"xt":"urn:btih:485f850a0fab86a8904ecea3509268e3d0bd80b9","amp;dn":"Rihanna+-+Diamonds+%28Single%29+%5BFeat.+Kanye+West%5D+M4A+%26amp%3B+MP3","amp;tr":["udp%3A%2F%2Ftracker.openbittorrent.com%3A80","udp%3A%2F%2Fopen.demonii.com%3A1337","udp%3A%2F%2Ftracker.coppersurfer.tk%3A6969","udp%3A%2F%2Fexodus.desync.com%3A6969"],"infoHash":"485f850a0fab86a8904ecea3509268e3d0bd80b9","infoHashBuffer":{"type":"Buffer","data":[72,95,133,10,15,171,134,168,144,78,206,163,80,146,104,227,208,189,128,185]},"announce":[],"urlList":[]}}